<svg xmlns="http://www.w3.org/2000/svg" viewBox="0 0 620 190" role="img" aria-labelledby="title desc">
  <title id="title">123 Opruimen</title>
  <desc id="desc">Groen en zilverkleurig logo voor 123 Opruimen</desc>
  <defs>
    <linearGradient id="silver" x1="0" x2="1"><stop offset="0" stop-color="#f5f7f6"/><stop offset=".48" stop-color="#aeb7b1"/><stop offset="1" stop-color="#ffffff"/></linearGradient>
    <linearGradient id="green" x1="0" y1="1" x2="1" y2="0"><stop offset="0" stop-color="#159a43"/><stop offset=".5" stop-color="#38d96f"/><stop offset="1" stop-color="#8df0a9"/></linearGradient>
  </defs>
  <g transform="translate(12 8)">
    <path d="M10 38h40v112H12v-25h14V66H10z" fill="url(#green)"/>
    <path d="M67 41c18-14 64-20 88 4 20 20 12 51-15 72l-27 21h53v24H64v-20l55-44c14-11 20-24 10-34-12-12-35-6-49 5z" fill="url(#green)"/>
    <path d="M183 52c29-25 91-16 95 25 2 20-10 33-27 39 21 5 34 20 32 42-4 44-72 53-108 21l18-22c20 18 55 18 58-4 2-17-15-23-37-22v-24c22 1 37-6 35-21-2-20-32-22-50-5z" fill="url(#green)"/>
    <text x="300" y="104" font-family="Inter,Arial,sans-serif" font-size="66" font-style="italic" font-weight="900" letter-spacing="-3" fill="url(#silver)">OPRUIMEN</text>
    <path d="M308 125h268" stroke="url(#green)" stroke-width="8" stroke-linecap="round"/>
    <text x="306" y="156" font-family="Inter,Arial,sans-serif" font-size="18" font-weight="800" letter-spacing="7" fill="#d8dfda">SNEL • BETROUWBAAR • ZORGELOOS</text>
  </g>
</svg>