<svg xmlns="http://www.w3.org/2000/svg" viewBox="0 0 760 210" role="img" aria-labelledby="title desc">
  <title id="title">123 Opruimen</title>
  <desc id="desc">Groen en zilverkleurig logo voor 123 Opruimen</desc>
  <defs>
    <linearGradient id="silver" x1="0" x2="1">
      <stop offset="0" stop-color="#ffffff"/>
      <stop offset="0.48" stop-color="#aeb7b1"/>
      <stop offset="1" stop-color="#f7faf8"/>
    </linearGradient>
    <linearGradient id="green" x1="0" y1="1" x2="1" y2="0">
      <stop offset="0" stop-color="#159a43"/>
      <stop offset="0.5" stop-color="#38d96f"/>
      <stop offset="1" stop-color="#8df0a9"/>
    </linearGradient>
    <filter id="shadow" x="-20%" y="-20%" width="140%" height="140%">
      <feDropShadow dx="0" dy="4" stdDeviation="4" flood-color="#000000" flood-opacity="0.45"/>
    </filter>
  </defs>

  <g transform="translate(18 14)" filter="url(#shadow)">
    <g aria-hidden="true">
      <path d="M8 38h44v126H14v-29h15V69H8z" fill="url(#green)"/>
      <path d="M70 42c21-17 73-23 101 5 23 23 14 59-18 84l-31 24h60v28H66v-23l63-51c16-13 23-28 11-40-14-14-40-7-56 6z" fill="url(#green)"/>
      <path d="M200 53c33-29 104-18 109 29 2 23-11 38-31 45 24 6 39 23 37 48-5 50-82 61-123 24l21-25c23 20 63 20 66-5 2-19-17-26-42-25v-27c25 1 42-7 40-24-2-23-36-25-57-6z" fill="url(#green)"/>
    </g>

    <text x="330" y="112" font-family="Inter,Arial,sans-serif" font-size="64" font-style="italic" font-weight="900" letter-spacing="-2" fill="url(#silver)">OPRUIMEN</text>
    <path d="M334 135h386" stroke="url(#green)" stroke-width="8" stroke-linecap="round"/>
    <text x="334" y="171" font-family="Inter,Arial,sans-serif" font-size="17" font-weight="800" letter-spacing="5.4" fill="#d8dfda">SNEL • BETROUWBAAR • ZORGELOOS</text>
  </g>
</svg>